<svg version="1.1" xmlns="http://www.w3.org/2000/svg" viewBox="-228.35199279785155 -3097.8560394287106 4413.440283203125 3414.2720428466796"><desc>Created with Snap</desc><defs></defs><g><g transform="matrix(19.6546,0,0,19.6546,1095.9148,-2809.2101)"><path fill-rule="evenodd" clip-rule="evenodd" d="M66.68,53.868c1.4,3.537,2.725,6.932,4.086,10.313  c1.075,2.664,2.14,5.335,3.317,7.953c0.608,1.353,1.456,2.597,2.186,3.875c-3.719-1.622-7.399-3.296-11.134-4.841  c-3.727-1.541-7.509-2.952-11.363-4.457c-0.231,0.653-0.464,1.451-0.792,2.206c-1.695,3.899-3.499,7.753-5.098,11.69  c-1.112,2.737-1.953,5.585-2.831,8.138c-1.369-3.497-2.786-7.293-4.337-11.031c-1.546-3.725-3.227-7.394-4.874-11.144  c-1.287,0.597-2.64,1.302-4.05,1.859c-2.73,1.078-5.532,1.981-8.231,3.131c-2.806,1.193-5.528,2.585-8.279,3.906  c-0.473,0.228-0.908,0.536-1.51,0.715c4.407-6.94,5.875-15.099,9.658-22.271c-2.127-0.841-4.172-1.592-6.17-2.453  c-3.463-1.49-6.863-3.134-10.356-4.549c-1.933-0.783-4-1.234-6.209-1.894c0.702-0.246,1.255-0.484,1.831-0.635  c4.845-1.269,9.289-3.518,13.818-5.57c2.042-0.926,4.164-1.682,6.273-2.451c0.735-0.268,0.863-0.471,0.531-1.262  c-1.599-3.806-3.143-7.637-4.608-11.496c-1.196-3.152-2.635-6.17-4.418-9.027c-0.109-0.175-0.208-0.358-0.307-0.528  c3.71,1.624,7.381,3.301,11.107,4.842c3.727,1.542,7.51,2.948,11.361,4.45c0.233-0.66,0.464-1.456,0.788-2.212  c1.201-2.807,2.372-5.628,3.667-8.391c1.771-3.78,3.301-7.634,4.146-11.79c1.488,3.816,2.881,7.578,4.417,11.28  c1.545,3.726,3.232,7.393,4.874,11.124c1.342-0.61,2.779-1.338,4.271-1.925c3.12-1.227,6.316-2.271,9.395-3.594  c2.606-1.12,5.092-2.523,7.627-3.807c0.259-0.131,0.5-0.297,0.797-0.475c-1.676,3.808-3.383,7.507-4.938,11.268  c-1.553,3.745-2.957,7.552-4.449,11.39c1.326,0.493,2.778,0.961,4.173,1.568c2.691,1.171,5.366,2.388,8.021,3.645  c2.996,1.419,6.123,2.44,9.338,3.214c0.22,0.053,0.437,0.129,0.695,0.363C81.117,46.799,74.32,51.48,66.68,53.868z M45.497,59.834  c0,8.084,0,15.904,0,23.944c0.161-0.299,0.218-0.394,0.265-0.494c1.306-2.891,2.649-5.766,3.906-8.678  c1.126-2.608,2.165-5.254,3.207-7.896c0.089-0.223,0.008-0.706-0.154-0.803C50.062,64.307,47.633,62.433,45.497,59.834z   M44.557,30.196c0-8.096,0-15.94,0-23.774c-1.378,2.972-2.794,5.904-4.103,8.883c-1.154,2.625-2.199,5.3-3.253,7.968  c-0.096,0.244-0.005,0.775,0.173,0.884C40.026,25.763,42.442,27.647,44.557,30.196z M29.79,45.509c-7.814,0-15.647,0-23.475,0  c2.474,1.142,4.899,2.308,7.363,3.383c3.097,1.35,6.229,2.618,9.34,3.939c0.622,0.265,0.968,0.095,1.3-0.482  c0.492-0.855,1.022-1.703,1.648-2.461C27.2,48.394,28.511,46.964,29.79,45.509z M45.673,29.822c0.122-0.028,0.196-0.022,0.225-0.056  c1.976-2.292,4.337-4.106,6.925-5.656c0.184-0.11,0.307-0.573,0.237-0.807c-0.271-0.916-0.573-1.831-0.963-2.702  c-1.721-3.85-3.482-7.682-5.216-11.525c-0.39-0.864-0.73-1.75-1.093-2.627C45.75,6.467,45.711,6.483,45.673,6.5  C45.673,14.268,45.673,22.036,45.673,29.822z M30.047,44.371c-2.481-1.987-4.236-4.32-5.75-6.836  c-0.395-0.656-0.759-0.764-1.432-0.472c-5.536,2.4-11.082,4.777-16.625,7.162c0.011,0.049,0.022,0.097,0.033,0.146  C14.125,44.371,21.976,44.371,30.047,44.371z M44.393,60.086c-0.149,0.1-0.301,0.162-0.395,0.271  c-1.885,2.221-4.168,3.955-6.662,5.422c-0.482,0.282-0.505,0.597-0.342,1.038c0.343,0.928,0.626,1.88,1.029,2.781  c1.726,3.854,3.49,7.69,5.229,11.539c0.359,0.796,0.668,1.612,1.001,2.42c0.046-0.013,0.093-0.025,0.14-0.038  C44.393,75.737,44.393,67.954,44.393,60.086z M17.239,71.463c5.36-5.335,10.899-10.849,16.41-16.332  c-2.802,0.322-5.66-0.069-8.47-0.772c-0.795-0.199-1.14-0.012-1.418,0.69C21.554,60.627,19.332,66.199,17.239,71.463z   M72.769,71.961c-0.806-2.12-1.566-4.192-2.376-6.245c-1.39-3.53-2.818-7.046-4.207-10.577c-0.292-0.739-0.645-0.946-1.479-0.726  c-2.644,0.7-5.343,1.019-8.087,0.811c-0.179-0.014-0.362-0.002-0.587-0.002C61.655,60.847,67.201,66.393,72.769,71.961z   M34.897,33.938c0.01-0.188,0.036-0.33,0.022-0.467c-0.271-2.839,0.144-5.616,0.808-8.359c0.151-0.625,0.063-0.928-0.539-1.165  c-3.62-1.426-7.226-2.888-10.845-4.316c-2.037-0.803-4.09-1.564-6.001-2.292C23.774,22.785,29.295,28.321,34.897,33.938z   M55.154,56.106c0.334,2.996-0.053,5.86-0.776,8.68c-0.193,0.758-0.053,1.143,0.68,1.427c3.568,1.39,7.121,2.82,10.686,4.221  c2.037,0.802,4.088,1.573,6.021,2.314C66.306,67.278,60.77,61.73,55.154,56.106z M34.623,56.352  c-5.374,5.363-10.887,10.869-16.347,16.319c-0.001,0.001,0.108-0.022,0.211-0.062c2.433-0.931,4.875-1.838,7.294-2.801  c3.086-1.229,6.15-2.511,9.233-3.749c0.628-0.253,0.777-0.609,0.591-1.251c-0.224-0.772-0.42-1.567-0.498-2.367  C34.902,60.339,34.768,58.228,34.623,56.352z M17.31,18.201c0.138,0.324,0.296,0.669,0.433,1.022  c0.637,1.645,1.253,3.298,1.905,4.938c1.457,3.666,2.933,7.324,4.393,10.988c0.18,0.451,0.397,0.657,0.94,0.504  c2.701-0.757,5.457-1.042,8.259-0.881c0.218,0.013,0.438,0.001,0.617,0.001C28.319,29.228,22.816,23.715,17.31,18.201z   M59.956,45.57c2.547,2.134,4.364,4.526,5.953,7.116c0.128,0.206,0.688,0.329,0.958,0.235c1.527-0.527,3.059-1.065,4.534-1.724  c3.448-1.539,6.862-3.154,10.296-4.725c0.625-0.286,1.278-0.511,1.919-0.763c-0.018-0.047-0.033-0.094-0.048-0.14  C75.788,45.57,68.009,45.57,59.956,45.57z M71.594,17.497c-0.073,0.022-0.21,0.056-0.342,0.106c-2.209,0.838-4.43,1.652-6.625,2.526  c-3.223,1.281-6.426,2.607-9.641,3.906c-0.527,0.213-0.647,0.486-0.533,1.095c0.355,1.879,0.633,3.775,0.844,5.676  c0.11,0.994,0.02,2.01,0.02,2.93C60.732,28.332,66.17,22.908,71.594,17.497z M60.013,44.453c8.028,0,15.793,0,23.56,0  c-1.256-0.656-2.54-1.191-3.813-1.752c-3.999-1.763-7.984-3.56-11.999-5.292c-1.429-0.617-1.469-0.555-2.322,0.793  C63.988,40.491,62.285,42.563,60.013,44.453z M72.471,18.921c-5.102,5.078-10.52,10.471-15.927,15.853  c2.898-0.22,5.82,0.175,8.717,0.854c0.226,0.053,0.668-0.213,0.795-0.448c0.476-0.865,0.916-1.757,1.268-2.677  C69.111,27.839,70.866,23.164,72.471,18.921z M36.618,65.091c2.959-1.723,5.496-3.721,7.439-6.408  c0.127-0.176,0.202-0.543,0.105-0.705c-1.101-1.826-1.781-3.801-2.101-5.999c-1.768,1.367-3.64,2.246-5.692,2.761  c-0.21,0.052-0.465,0.379-0.5,0.608C35.379,58.596,35.738,61.783,36.618,65.091z M53.337,65.13c0.838-3.293,1.23-6.44,0.749-9.664  c-0.077-0.509-0.365-0.625-0.793-0.799c-1.521-0.615-3.007-1.311-4.494-1.998c-0.303-0.142-0.56-0.377-0.948-0.646  c-0.249,2.25-1.038,4.141-2.054,5.953c-0.096,0.174-0.046,0.536,0.077,0.708C47.816,61.379,50.359,63.378,53.337,65.13z   M42.18,38.038c0.238-2.262,1.045-4.203,2.087-6.069c0.112-0.2-0.066-0.702-0.267-0.912c-1.262-1.318-2.51-2.66-3.88-3.858  c-0.988-0.865-2.159-1.522-3.357-2.348c-0.875,3.396-1.239,6.588-0.738,9.842c0.032,0.208,0.26,0.503,0.449,0.551  C38.525,35.767,40.394,36.666,42.18,38.038z M37.774,42.074c-0.724-1.508-1.605-2.871-2.028-4.364  c-0.39-1.375-0.974-1.894-2.402-1.96c-2.836-0.13-5.583,0.194-8.447,0.942c1.742,2.952,3.725,5.499,6.438,7.416  c0.152,0.107,0.482,0.136,0.63,0.044C33.771,43.031,35.73,42.348,37.774,42.074z M24.808,53.286c3.288,0.876,6.52,1.229,9.813,0.723  c0.236-0.036,0.572-0.311,0.623-0.53c0.468-2.009,1.364-3.811,2.455-5.297c-1.896-0.788-3.771-1.584-5.664-2.334  c-0.255-0.102-0.686-0.082-0.895,0.072C28.502,47.868,26.494,50.365,24.808,53.286z M52.14,47.949  c0.407,0.655,0.8,1.217,1.122,1.816c0.338,0.631,0.79,1.274,0.879,1.953c0.279,2.151,1.565,2.656,3.51,2.613  c2.515-0.055,4.98-0.284,7.482-0.99c-1.676-2.92-3.682-5.407-6.31-7.35c-0.221-0.163-0.758-0.122-1.021,0.035  C56.077,47.05,54.222,47.653,52.14,47.949z M48.204,37.764c1.545-1.195,3.395-1.988,5.376-2.536  c0.255-0.071,0.561-0.546,0.567-0.842c0.051-1.878,0.108-3.764-0.007-5.637c-0.078-1.249-0.44-2.479-0.699-3.84  c-3.121,1.885-5.785,3.954-7.571,6.618C46.688,33.713,47.434,35.708,48.204,37.764z M65.143,36.683  c-2.935-0.767-5.746-1.115-8.631-0.86c-1.491,0.132-1.412,0.11-1.926,1.444c-0.637,1.655-1.433,3.249-2.13,4.803  c0.808,0.221,1.774,0.417,2.692,0.757c0.917,0.34,1.771,0.854,2.678,1.229c0.278,0.115,0.742,0.165,0.95,0.012  C61.424,42.129,63.432,39.632,65.143,36.683z M44.377,49.521c-1.247,1.344-1.386,1.658-1.089,3.043  c0.227,1.059,0.556,2.094,0.839,3.14c0.083-0.02,0.167-0.038,0.25-0.058C44.377,53.663,44.377,51.678,44.377,49.521z M38.176,36.935  c1.307,1.349,2.716,2.805,4.11,4.245C42.309,38.333,39.818,37.963,38.176,36.935z M49.729,45.651  c-0.026,0.055-0.052,0.109-0.079,0.165c0.572,0.327,1.128,0.894,1.719,0.932c1.512,0.101,2.956-0.372,4.323-1.097  C53.706,45.651,51.717,45.651,49.729,45.651z M45.594,55.726c0.097,0.014,0.193,0.029,0.29,0.042  c0.276-1.174,0.52-2.357,0.836-3.521c0.316-1.167-0.391-1.825-1.126-2.683C45.594,51.746,45.594,53.734,45.594,55.726z   M51.861,53.09c-1.293-1.364-2.693-2.841-4.132-4.358C47.749,51.665,50.253,52.025,51.861,53.09z M40.967,42.165  c-1.344-1.354-2.719-2.742-4.095-4.128C37.992,39.708,38.274,42.218,40.967,42.165z M34.232,45.651c2.411,1.075,4.961,1.697,5.97,0  C38.251,45.651,36.328,45.651,34.232,45.651z M36.721,52.021c1.434-1.434,2.877-2.876,4.246-4.243  C38.203,47.753,37.842,50.272,36.721,52.021z M44.393,40.421c0-2.07,0-4.02,0-5.97C43.798,36.405,42.401,38.355,44.393,40.421z   M37.945,53.049c1.738-1.095,4.295-1.419,4.276-4.307C40.794,50.18,39.37,51.614,37.945,53.049z M47.894,40.955  c1.338-1.324,2.707-2.677,4.183-4.138C50.352,38.037,47.923,38.331,47.894,40.955z M40.335,44.309c-1.475-1.342-3.75-1.327-5.848,0  C36.449,44.309,38.351,44.309,40.335,44.309z M45.796,34.332c0,2.037,0,3.944,0,5.917C47.477,38.884,46.72,36.661,45.796,34.332z   M48.897,42.191c1.981-0.184,3.675-1.917,4.1-4.081C51.682,39.42,50.328,40.768,48.897,42.191z M52.989,51.827  c-0.635-2.361-2.267-4.017-3.943-3.868C50.4,49.286,51.765,50.626,52.989,51.827z M49.809,44.281c2.038,0,3.868,0,5.698,0  C53.673,43.835,51.847,42.429,49.809,44.281z" fill="#e4473e" style=""></path><desc>Created with Snap</desc><defs></defs></g><g><g transform="matrix(1.024,0,0,-1.024,0,0)"><path d="M168 446Q196 495 250 526Q304 557 373 557Q447 557 506 522Q565 487 599 423Q633 360 633 276Q633 193 599 128Q565 63 505 27Q446 -9 373 -9Q302 -9 248 22Q195 53 168 101L168 0L77 0L77 740L168 740L168 446ZM540 276Q540 338 515 384Q490 430 447 454Q405 478 354 478Q304 478 261 453Q219 429 193 382Q168 336 168 275Q168 213 193 166Q219 120 261 95Q304 71 354 71Q405 71 447 95Q490 120 515 166Q540 213 540 276ZM1253 295Q1253 269 1250 240L812 240Q817 159 867 113Q918 68 990 68Q1049 68 1088 95Q1128 123 1144 169L1242 169Q1220 90 1154 40Q1088 -9 990 -9Q912 -9 850 26Q789 61 754 125Q719 190 719 275Q719 360 753 424Q787 488 848 522Q910 557 990 557Q1068 557 1128 523Q1188 489 1220 429Q1253 370 1253 295ZM1159 314Q1159 366 1136 403Q1113 441 1073 460Q1034 480 986 480Q917 480 868 436Q820 392 813 314L1159 314ZM1339 276Q1339 360 1373 423Q1407 487 1466 522Q1526 557 1599 557Q1671 557 1724 526Q1777 495 1803 448L1803 548L1895 548L1895 0L1803 0L1803 102Q1776 54 1722 22Q1669 -9 1598 -9Q1525 -9 1466 27Q1407 63 1373 128Q1339 193 1339 276ZM1803 275Q1803 337 1778 383Q1753 429 1710 453Q1668 478 1617 478Q1566 478 1524 454Q1482 430 1457 384Q1432 338 1432 276Q1432 213 1457 166Q1482 120 1524 95Q1566 71 1617 71Q1668 71 1710 95Q1753 120 1778 166Q1803 213 1803 275ZM2015 275Q2015 360 2049 423Q2083 487 2143 522Q2204 557 2282 557Q2383 557 2448 508Q2514 459 2535 372L2437 372Q2423 422 2382 451Q2342 480 2282 480Q2204 480 2156 426Q2108 373 2108 275Q2108 176 2156 122Q2204 68 2282 68Q2342 68 2382 96Q2422 124 2437 176L2535 176Q2513 92 2447 41Q2381 -9 2282 -9Q2204 -9 2143 26Q2083 61 2049 125Q2015 189 2015 275ZM2895 -9Q2818 -9 2755 26Q2693 61 2657 125Q2622 190 2622 275Q2622 359 2658 423Q2695 488 2758 522Q2821 557 2899 557Q2977 557 3040 522Q3103 488 3139 424Q3176 360 3176 275Q3176 190 3138 125Q3101 61 3037 26Q2973 -9 2895 -9ZM2895 71Q2944 71 2987 94Q3030 117 3056 163Q3083 209 3083 275Q3083 341 3057 387Q3031 433 2989 455Q2947 478 2898 478Q2848 478 2806 455Q2765 433 2740 387Q2715 341 2715 275Q2715 208 2739 162Q2764 116 2805 93Q2846 71 2895 71ZM3563 558Q3663 558 3725 497Q3787 437 3787 323L3787 0L3697 0L3697 310Q3697 392 3656 435Q3615 479 3544 479Q3472 479 3429 434Q3387 389 3387 303L3387 0L3296 0L3296 548L3387 548L3387 470Q3414 512 3460 535Q3507 558 3563 558Z" fill="#1a283f" style=""></path></g></g></g></svg>